<?xml version="1.0" encoding="UTF-8"?>
<svg xmlns="http://www.w3.org/2000/svg" xmlns:xlink="http://www.w3.org/1999/xlink" viewBox="0 0 512 512" version="1.1">
<g id="surface1335061">
<path style=" stroke:none;fill-rule:nonzero;fill:rgb(20.392157%,59.607843%,85.882353%);fill-opacity:1;" d="M 131.5 80 L 129 93 L 121 139 L 117.5 158 L 343.5 158 L 338.5 187 L 112.5 187 L 110 200 L 102 246 L 98.5 264.5 L 324.5 264.5 L 313 329.5 L 229.5 368 L 164 332 L 167.5 312.5 L 171 294 L 93 294 L 91 307 L 80 368 L 77.5 380 L 88.5 385.5 L 213.5 446.5 L 220 449.5 L 226.5 447 L 373 385.5 L 381 382.5 L 383 373.5 L 432 99 L 435.5 80 Z M 158 112 L 397 112 L 353 359.5 L 220.5 414 L 113.5 362 L 120 326 L 132.5 326 L 128.5 349 L 138.5 354.5 L 221 400 L 228 404 L 235.5 400.5 L 334 355 L 341.5 351.5 L 343 343 L 359.5 251.5 L 363 232.5 L 137 232.5 L 139 219 L 365.5 219 L 367.5 205.5 L 378.5 144.5 L 382 126 L 156 126 Z M 158 112 "/>
</g>
</svg>
