<?xml version="1.0" encoding="UTF-8"?>
<svg xmlns="http://www.w3.org/2000/svg" xmlns:xlink="http://www.w3.org/1999/xlink" viewBox="0 0 480 480" version="1.1">
<g id="surface1336711">
<path style=" stroke:none;fill-rule:evenodd;fill:rgb(23.921569%,75.686275%,45.882353%);fill-opacity:1;" d="M 80 160 L 80 286.460938 C 66.550781 289 59.488281 290 48.78125 290 C 16.699219 289.96875 0 275.648438 0 248.160156 C 0 221.671875 17.710938 204.480469 45.160156 204.480469 C 49.421875 204.480469 52.660156 204.808594 56.589844 205.820312 L 56.589844 160 Z M 56.589844 226.71875 C 53.511719 225.71875 50.980469 225.378906 47.730469 225.378906 C 34.449219 225.378906 26.769531 233.46875 26.769531 247.660156 C 26.769531 261.46875 34.109375 269.089844 47.558594 269.089844 C 50.46875 269.089844 52.828125 268.929688 56.589844 268.421875 Z M 56.589844 226.71875 "/>
<path style=" stroke:none;fill-rule:evenodd;fill:rgb(23.921569%,75.686275%,45.882353%);fill-opacity:1;" d="M 120 200.460938 L 120 266.640625 C 120 287.398438 118.449219 298.878906 113.878906 307.480469 C 109.621094 315.75 104.011719 320.96875 92.421875 326.730469 L 68.050781 315.238281 C 79.640625 309.851562 85.261719 305.089844 88.839844 297.820312 C 92.589844 290.390625 93.78125 280.28125 93.78125 257.648438 L 93.78125 200.441406 L 120 200.441406 Z M 120 200.460938 "/>
<path style=" stroke:none;fill-rule:evenodd;fill:rgb(23.921569%,75.686275%,45.882353%);fill-opacity:1;" d="M 93.769531 160 L 120 160 L 120 187.128906 L 93.769531 187.128906 Z M 93.769531 160 "/>
<path style=" stroke:none;fill-rule:evenodd;fill:rgb(23.921569%,75.686275%,45.882353%);fill-opacity:1;" d="M 137.339844 208.761719 C 148.699219 203.238281 159.570312 200.808594 171.421875 200.808594 C 184.628906 200.808594 193.308594 204.441406 197.148438 211.539062 C 199.300781 215.511719 200 220.679688 200 231.75 L 200 285.820312 C 188.480469 287.53125 173.941406 288.761719 163.269531 288.761719 C 141.710938 288.761719 132.039062 280.980469 132.039062 263.710938 C 132.039062 245.03125 144.890625 236.398438 176.449219 233.648438 L 176.449219 227.800781 C 176.449219 222.96875 174.101562 221.21875 167.609375 221.21875 C 158.109375 221.21875 147.410156 224 137.371094 229.339844 Z M 177.609375 251.070312 C 160.589844 252.78125 155.058594 255.558594 155.058594 262.480469 C 155.058594 267.660156 158.238281 270.089844 165.261719 270.089844 C 169.101562 270.089844 172.609375 269.75 177.609375 268.890625 Z M 177.609375 251.070312 "/>
<path style=" stroke:none;fill-rule:evenodd;fill:rgb(23.921569%,75.686275%,45.882353%);fill-opacity:1;" d="M 214.179688 206.929688 C 229.378906 202.71875 241.898438 200.800781 254.589844 200.800781 C 267.769531 200.800781 277.320312 203.96875 282.980469 210.101562 C 288.300781 215.878906 290 222.21875 290 235.730469 L 290 288.761719 L 264.261719 288.761719 L 264.261719 236.808594 C 264.261719 226.429688 260.910156 222.570312 251.738281 222.570312 C 248.230469 222.570312 245.050781 222.921875 239.878906 224.519531 L 239.878906 288.769531 L 214.179688 288.769531 Z M 214.179688 206.929688 "/>
<path style=" stroke:none;fill-rule:evenodd;fill:rgb(23.921569%,75.686275%,45.882353%);fill-opacity:1;" d="M 301.769531 300.058594 C 310.960938 304.921875 320.160156 307.160156 329.890625 307.160156 C 347.101562 307.160156 354.429688 302.429688 354.429688 285.398438 L 354.429688 284.878906 C 349.328125 287.460938 344.179688 288.539062 337.390625 288.539062 C 314.371094 288.539062 300 273.070312 300 248.570312 C 300 218.140625 321.410156 200.949219 359.738281 200.949219 C 371 200.949219 381.410156 202.160156 394.011719 204.78125 L 385.019531 224.078125 C 378.03125 222.699219 384.449219 223.871094 379.179688 223.359375 L 379.179688 226.148438 L 379.519531 237.449219 L 379.691406 252.058594 C 379.859375 255.71875 379.859375 259.359375 380.03125 263.019531 L 380.03125 270.320312 C 380.03125 293.269531 378.128906 301.628906 372.519531 310.519531 C 364.339844 323.539062 350.179688 329.988281 330.058594 329.988281 C 319.820312 329.988281 310.960938 328.441406 301.769531 324.78125 Z M 353.921875 222.511719 L 351.171875 222.511719 C 346.070312 222.339844 340.089844 223.71875 335.988281 226.339844 C 329.710938 229.988281 326.460938 236.609375 326.460938 245.980469 C 326.460938 259.351562 332.949219 267 344.539062 267 C 348.121094 267 351.03125 266.308594 354.410156 265.28125 L 354.410156 256.050781 C 354.410156 252.910156 354.238281 249.429688 354.238281 245.78125 L 354.070312 233.441406 L 353.898438 224.582031 L 353.898438 222.511719 Z M 353.921875 222.511719 "/>
<path style=" stroke:none;fill-rule:evenodd;fill:rgb(23.921569%,75.686275%,45.882353%);fill-opacity:1;" d="M 435.660156 200.460938 C 463.191406 200.460938 480 217.058594 480 243.941406 C 480 271.5 462.480469 288.769531 434.558594 288.769531 C 407 288.769531 390 272.179688 390 245.46875 C 390.050781 217.738281 407.570312 200.460938 435.660156 200.460938 Z M 435.089844 267.519531 C 445.660156 267.519531 451.898438 259.140625 451.898438 244.578125 C 451.898438 230.191406 445.828125 221.640625 435.269531 221.640625 C 424.339844 221.640625 418.089844 230.019531 418.089844 244.578125 C 418.101562 259.140625 424.378906 267.519531 435.089844 267.519531 Z M 435.089844 267.519531 "/>
</g>
</svg>
